<svg width="30" height="30" viewBox="0 0 30 30" fill="none" xmlns="http://www.w3.org/2000/svg">
<path d="M21.7209 0H8.27874C3.71384 0 0 3.71402 0 8.27892V21.7211C0 26.2862 3.71384 30 8.27874 30H21.7209C26.2862 30 30 26.286 30 21.7211V8.27892C30.0002 3.71402 26.2862 0 21.7209 0ZM27.3384 21.7211C27.3384 24.8185 24.8185 27.3383 21.7211 27.3383H8.27874C5.18153 27.3384 2.66175 24.8185 2.66175 21.7211V8.27892C2.66175 5.18171 5.18153 2.66175 8.27874 2.66175H21.7209C24.8183 2.66175 27.3383 5.18171 27.3383 8.27892V21.7211H27.3384Z" fill="#21243D"/>
<path d="M15 7.27051C10.7375 7.27051 7.26978 10.7382 7.26978 15.0007C7.26978 19.2631 10.7375 22.7306 15 22.7306C19.2625 22.7306 22.7303 19.2631 22.7303 15.0007C22.7303 10.7382 19.2625 7.27051 15 7.27051ZM15 20.0687C12.2054 20.0687 9.93152 17.7952 9.93152 15.0006C9.93152 12.2057 12.2052 9.93208 15 9.93208C17.7948 9.93208 20.0685 12.2057 20.0685 15.0006C20.0685 17.7952 17.7947 20.0687 15 20.0687Z" fill="#21243D"/>
<path d="M23.0545 5.0127C22.5417 5.0127 22.0379 5.22031 21.6757 5.58408C21.3118 5.94608 21.1025 6.45004 21.1025 6.96464C21.1025 7.47765 21.3119 7.98143 21.6757 8.3452C22.0377 8.7072 22.5417 8.91659 23.0545 8.91659C23.5691 8.91659 24.0713 8.7072 24.435 8.3452C24.7988 7.98143 25.0064 7.47747 25.0064 6.96464C25.0064 6.45004 24.7988 5.94608 24.435 5.58408C24.073 5.22031 23.5691 5.0127 23.0545 5.0127Z" fill="#21243D"/>
</svg>
